<svg xmlns="http://www.w3.org/2000/svg" width="1200" height="650" viewBox="0 0 1200 650">
<rect width="100%" height="100%" fill="white"/>
<text x="600" y="35" text-anchor="middle" font-size="22">Twitter Daily Volume</text>
<line x1="90" y1="550" x2="1140" y2="550" stroke="#333"/>
<line x1="90" y1="70" x2="90" y2="550" stroke="#333"/>
<polyline points="90.0,492.3 133.8,470.5 177.5,496.0 221.2,494.3 265.0,486.5 308.8,489.3 352.5,484.7 396.2,479.7 440.0,392.8 483.8,489.5 527.5,494.6 571.2,479.0 615.0,476.8 658.8,471.6 702.5,479.8 746.2,477.0 790.0,478.5 833.8,452.6 877.5,405.3 921.2,335.7 965.0,141.6 1008.8,324.3 1052.5,278.7 1096.2,219.7 1140.0,367.1" fill="none" stroke="#D94B4B" stroke-width="3"/>
<polyline points="90.0,502.4 133.8,492.8 177.5,513.5 221.2,517.0 265.0,515.7 308.8,512.2 352.5,507.2 396.2,498.6 440.0,403.9 483.8,508.3 527.5,502.6 571.2,506.3 615.0,506.6 658.8,497.7 702.5,506.3 746.2,503.4 790.0,503.5 833.8,494.1 877.5,467.0 921.2,417.8 965.0,232.8 1008.8,400.7 1052.5,386.1 1096.2,70.0 1140.0,309.3" fill="none" stroke="#3977C3" stroke-width="3"/>
<text x="90.0" y="580" font-size="11" text-anchor="end" transform="rotate(-35 90.0 580)">2020-10-15</text>
<text x="265.0" y="580" font-size="11" text-anchor="end" transform="rotate(-35 265.0 580)">2020-10-19</text>
<text x="440.0" y="580" font-size="11" text-anchor="end" transform="rotate(-35 440.0 580)">2020-10-23</text>
<text x="615.0" y="580" font-size="11" text-anchor="end" transform="rotate(-35 615.0 580)">2020-10-27</text>
<text x="790.0" y="580" font-size="11" text-anchor="end" transform="rotate(-35 790.0 580)">2020-10-31</text>
<text x="965.0" y="580" font-size="11" text-anchor="end" transform="rotate(-35 965.0 580)">2020-11-04</text>
<text x="1140.0" y="580" font-size="11" text-anchor="end" transform="rotate(-35 1140.0 580)">2020-11-08</text>
<text x="930" y="42" fill="#D94B4B">Donald Trump</text>
<text x="1040" y="42" fill="#3977C3">Joe Biden</text>
</svg>